<svg width="132" height="25" viewBox="0 0 132 25" fill="none" xmlns="http://www.w3.org/2000/svg">
<path d="M0 0H20.6494L13.7662 8.42697H0V0Z" fill="#F9FAFB"/>
<path d="M0 12.5H10.0599L6.70663 16.573H0V12.5Z" fill="#F9FAFB"/>
<path d="M0 12.5H10.0599L6.70663 8.42697H0V12.5Z" fill="#F9FAFB"/>
<path fill-rule="evenodd" clip-rule="evenodd" d="M26.4735 12.5H19.8552L16.5018 8.42697H23.1202L26.4735 12.5Z" fill="#F9FAFB"/>
<path fill-rule="evenodd" clip-rule="evenodd" d="M26.4735 12.5H19.8552L16.5018 16.573H23.1202L26.4735 12.5Z" fill="#F9FAFB"/>
<path d="M0 25H20.6494L13.7662 16.573H0V25Z" fill="#F9FAFB"/>
<path d="M47.2922 6.1889C47.2922 6.27619 47.2593 6.35475 47.1935 6.42458C47.1442 6.47695 47.0784 6.50314 46.9962 6.50314H41.8409C41.7587 6.50314 41.7175 6.54679 41.7175 6.63408V10.7716C41.7175 10.8589 41.7587 10.9026 41.8409 10.9026H44.8009C44.8831 10.9026 44.9489 10.9375 44.9982 11.0073C45.064 11.0597 45.0969 11.1295 45.0969 11.2168V13.757C45.0969 13.8443 45.064 13.9228 44.9982 13.9927C44.9489 14.045 44.8831 14.0712 44.8009 14.0712H41.8409C41.7587 14.0712 41.7175 14.1149 41.7175 14.2022V18.3659C41.7175 18.4532 41.7587 18.4969 41.8409 18.4969H46.9962C47.0784 18.4969 47.1442 18.5318 47.1935 18.6016C47.2593 18.654 47.2922 18.7238 47.2922 18.8111V21.3513C47.2922 21.4385 47.2593 21.5171 47.1935 21.5869C47.1442 21.6393 47.0784 21.6655 46.9962 21.6655H38.5356C38.4533 21.6655 38.3793 21.6393 38.3136 21.5869C38.2642 21.5171 38.2396 21.4385 38.2396 21.3513V3.64874C38.2396 3.56145 38.2642 3.49162 38.3136 3.43925C38.3793 3.36941 38.4533 3.3345 38.5356 3.3345H46.9962C47.0784 3.3345 47.1442 3.36941 47.1935 3.43925C47.2593 3.49162 47.2922 3.56145 47.2922 3.64874V6.1889Z" fill="#F9FAFB"/>
<path d="M53.4953 21.875C52.5415 21.875 51.7028 21.6742 50.9793 21.2727C50.2557 20.8712 49.6966 20.3125 49.3019 19.5967C48.9073 18.8635 48.71 18.0255 48.71 17.0827V16.3233C48.71 16.236 48.7346 16.1662 48.7839 16.1138C48.8497 16.044 48.9237 16.0091 49.0059 16.0091H51.8426C51.9248 16.0091 51.9906 16.044 52.0399 16.1138C52.1057 16.1662 52.1386 16.236 52.1386 16.3233V16.8994C52.1386 17.4406 52.2702 17.8771 52.5333 18.2088C52.7964 18.5405 53.1253 18.7064 53.5199 18.7064C53.9146 18.7064 54.2435 18.5492 54.5066 18.235C54.7697 17.9207 54.9013 17.5105 54.9013 17.0042C54.9013 16.4804 54.7368 16.0353 54.4079 15.6686C54.079 15.2846 53.4377 14.7259 52.4839 13.9927C51.6617 13.3642 50.9957 12.8055 50.4859 12.3167C49.9762 11.8279 49.5404 11.2256 49.1786 10.5098C48.8168 9.79399 48.6359 8.96473 48.6359 8.022C48.6359 6.53806 49.0717 5.35091 49.9433 4.46054C50.8148 3.57018 51.9659 3.125 53.3966 3.125C54.8437 3.125 56.003 3.58764 56.8746 4.51292C57.7626 5.4382 58.2066 6.65153 58.2066 8.15293V8.78142C58.2066 8.86871 58.1737 8.94728 58.1079 9.01711C58.0586 9.06948 57.9928 9.09567 57.9106 9.09567H55.0739C54.9917 9.09567 54.9177 9.06948 54.8519 9.01711C54.8026 8.94728 54.7779 8.86871 54.7779 8.78142V8.07437C54.7779 7.53317 54.6464 7.10545 54.3833 6.7912C54.1366 6.4595 53.8077 6.29364 53.3966 6.29364C53.0019 6.29364 52.6813 6.45077 52.4346 6.76501C52.1879 7.0618 52.0646 7.48079 52.0646 8.022C52.0646 8.54574 52.2208 9.00838 52.5333 9.40991C52.8457 9.81145 53.4624 10.3701 54.3833 11.0859C55.4028 11.889 56.1675 12.5436 56.6773 13.0499C57.2035 13.5388 57.6064 14.0887 57.8859 14.6997C58.1819 15.2933 58.3299 16.0091 58.3299 16.8471C58.3299 18.3834 57.8859 19.6054 56.9979 20.5133C56.1099 21.4211 54.9424 21.875 53.4953 21.875Z" fill="#F9FAFB"/>
<path d="M64.6775 21.875C63.1975 21.875 62.0053 21.4124 61.1009 20.4871C60.2129 19.5443 59.7689 18.2874 59.7689 16.7161V8.23149C59.7689 6.67772 60.2129 5.4382 61.1009 4.51292C62.0053 3.58764 63.1975 3.125 64.6775 3.125C66.174 3.125 67.3662 3.58764 68.2542 4.51292C69.1586 5.4382 69.6108 6.67772 69.6108 8.23149V8.51955C69.6108 8.60684 69.578 8.6854 69.5122 8.75524C69.4628 8.80761 69.3971 8.8338 69.3148 8.8338L66.4289 8.96473C66.2315 8.96473 66.1329 8.86871 66.1329 8.67667V7.99581C66.1329 7.48953 66.0013 7.07926 65.7382 6.76501C65.4751 6.45077 65.1215 6.29364 64.6775 6.29364C64.25 6.29364 63.9046 6.45077 63.6415 6.76501C63.3784 7.07926 63.2469 7.48953 63.2469 7.99581V17.0304C63.2469 17.5367 63.3784 17.9469 63.6415 18.2612C63.9046 18.558 64.25 18.7064 64.6775 18.7064C65.1215 18.7064 65.4751 18.558 65.7382 18.2612C66.0013 17.9469 66.1329 17.5367 66.1329 17.0304V16.3233C66.1329 16.236 66.1575 16.1662 66.2069 16.1138C66.2726 16.044 66.3466 16.0091 66.4289 16.0091L69.3148 16.14C69.3971 16.14 69.4628 16.1749 69.5122 16.2448C69.578 16.2971 69.6108 16.367 69.6108 16.4543V16.7161C69.6108 18.2874 69.1586 19.5443 68.2542 20.4871C67.3497 21.4124 66.1575 21.875 64.6775 21.875Z" fill="#F9FAFB"/>
<path d="M76.1936 21.875C74.6807 21.875 73.472 21.4036 72.5676 20.4609C71.6631 19.5182 71.2109 18.2612 71.2109 16.6899V8.31005C71.2109 6.73883 71.6631 5.48184 72.5676 4.5391C73.472 3.59637 74.6807 3.125 76.1936 3.125C77.7064 3.125 78.9151 3.59637 79.8195 4.5391C80.7404 5.48184 81.2009 6.73883 81.2009 8.31005V16.6899C81.2009 18.2612 80.7404 19.5182 79.8195 20.4609C78.9151 21.4036 77.7064 21.875 76.1936 21.875ZM76.1936 18.7064C76.654 18.7064 77.024 18.5405 77.3035 18.2088C77.5831 17.8596 77.7229 17.4057 77.7229 16.8471V8.15293C77.7229 7.59427 77.5831 7.14909 77.3035 6.81739C77.024 6.46823 76.654 6.29364 76.1936 6.29364C75.7331 6.29364 75.3631 6.46823 75.0836 6.81739C74.8204 7.14909 74.6889 7.59427 74.6889 8.15293V16.8471C74.6889 17.4057 74.8204 17.8596 75.0836 18.2088C75.3631 18.5405 75.7331 18.7064 76.1936 18.7064Z" fill="#F9FAFB"/>
<path d="M87.951 21.875C86.471 21.875 85.2788 21.3862 84.3744 20.4085C83.4864 19.4134 83.0424 18.0953 83.0424 16.4543V3.64874C83.0424 3.56145 83.0671 3.49162 83.1164 3.43925C83.1822 3.36941 83.2562 3.3345 83.3384 3.3345H86.2244C86.3066 3.3345 86.3724 3.36941 86.4217 3.43925C86.4875 3.49162 86.5204 3.56145 86.5204 3.64874V16.8209C86.5204 17.3795 86.6519 17.8334 86.915 18.1826C87.1782 18.5318 87.5235 18.7064 87.951 18.7064C88.3786 18.7064 88.7157 18.5318 88.9624 18.1826C89.2255 17.8334 89.357 17.3795 89.357 16.8209V3.64874C89.357 3.56145 89.3817 3.49162 89.431 3.43925C89.4968 3.36941 89.5708 3.3345 89.653 3.3345H92.539C92.6213 3.3345 92.687 3.36941 92.7364 3.43925C92.8021 3.49162 92.835 3.56145 92.835 3.64874V16.4543C92.835 18.0953 92.3828 19.4134 91.4784 20.4085C90.5904 21.3862 89.4146 21.875 87.951 21.875Z" fill="#F9FAFB"/>
<path d="M104.49 3.3345C104.573 3.3345 104.638 3.36941 104.688 3.43925C104.753 3.49162 104.786 3.56145 104.786 3.64874V6.1889C104.786 6.27619 104.753 6.35475 104.688 6.42458C104.638 6.47695 104.573 6.50314 104.49 6.50314H101.407C101.325 6.50314 101.284 6.54679 101.284 6.63408V21.3513C101.284 21.4385 101.251 21.5171 101.185 21.5869C101.136 21.6393 101.07 21.6655 100.988 21.6655H98.1017C98.0195 21.6655 97.9455 21.6393 97.8797 21.5869C97.8304 21.5171 97.8057 21.4385 97.8057 21.3513V6.63408C97.8057 6.54679 97.7646 6.50314 97.6824 6.50314H94.7224C94.6402 6.50314 94.5662 6.47695 94.5004 6.42458C94.4511 6.35475 94.4264 6.27619 94.4264 6.1889V3.64874C94.4264 3.56145 94.4511 3.49162 94.5004 3.43925C94.5662 3.36941 94.6402 3.3345 94.7224 3.3345H104.49Z" fill="#F9FAFB"/>
<path d="M107.076 21.7703C106.516 21.7703 106.048 21.5782 105.67 21.1941C105.308 20.7926 105.127 20.295 105.127 19.7015C105.127 19.0904 105.308 18.5929 105.67 18.2088C106.031 17.8247 106.5 17.6327 107.076 17.6327C107.651 17.6327 108.12 17.8247 108.482 18.2088C108.843 18.5929 109.024 19.0904 109.024 19.7015C109.024 20.295 108.835 20.7926 108.457 21.1941C108.095 21.5782 107.635 21.7703 107.076 21.7703Z" fill="#F9FAFB"/>
<path d="M115.552 21.875C114.072 21.875 112.88 21.4298 111.976 20.5395C111.088 19.6316 110.644 18.427 110.644 16.9256V8.07437C110.644 6.57297 111.088 5.37709 111.976 4.48673C112.88 3.57891 114.072 3.125 115.552 3.125C117.032 3.125 118.225 3.57891 119.129 4.48673C120.033 5.39455 120.486 6.59916 120.486 8.10056V9.09567C120.486 9.18296 120.453 9.26152 120.387 9.33135C120.338 9.38373 120.272 9.40991 120.19 9.40991H117.304C117.221 9.40991 117.147 9.38373 117.082 9.33135C117.032 9.26152 117.008 9.18296 117.008 9.09567V8.04818C117.008 7.52444 116.876 7.10545 116.613 6.7912C116.35 6.4595 115.996 6.29364 115.552 6.29364C115.125 6.29364 114.78 6.4595 114.516 6.7912C114.253 7.10545 114.122 7.52444 114.122 8.04818V16.9518C114.122 17.4756 114.253 17.9033 114.516 18.235C114.78 18.5492 115.125 18.7064 115.552 18.7064C115.996 18.7064 116.35 18.5492 116.613 18.235C116.876 17.9033 117.008 17.4756 117.008 16.9518V14.8568C117.008 14.7696 116.967 14.7259 116.884 14.7259H115.799C115.717 14.7259 115.643 14.6997 115.577 14.6473C115.528 14.5775 115.503 14.499 115.503 14.4117V12.081C115.503 11.9937 115.528 11.9239 115.577 11.8715C115.643 11.8017 115.717 11.7668 115.799 11.7668H120.19C120.272 11.7668 120.338 11.8017 120.387 11.8715C120.453 11.9239 120.486 11.9937 120.486 12.081V16.9256C120.486 18.427 120.033 19.6316 119.129 20.5395C118.225 21.4298 117.032 21.875 115.552 21.875Z" fill="#F9FAFB"/>
<path d="M127.067 21.875C125.587 21.875 124.394 21.4298 123.49 20.5395C122.602 19.6316 122.158 18.427 122.158 16.9256V8.07437C122.158 6.57297 122.602 5.37709 123.49 4.48673C124.394 3.57891 125.587 3.125 127.067 3.125C128.547 3.125 129.739 3.57891 130.643 4.48673C131.548 5.39455 132 6.59916 132 8.10056V9.09567C132 9.18296 131.967 9.26152 131.901 9.33135C131.852 9.38373 131.786 9.40991 131.704 9.40991H128.818C128.736 9.40991 128.662 9.38373 128.596 9.33135C128.547 9.26152 128.522 9.18296 128.522 9.09567V8.04818C128.522 7.52444 128.39 7.10545 128.127 6.7912C127.864 6.4595 127.511 6.29364 127.067 6.29364C126.639 6.29364 126.294 6.4595 126.031 6.7912C125.768 7.10545 125.636 7.52444 125.636 8.04818V16.9518C125.636 17.4756 125.768 17.9033 126.031 18.235C126.294 18.5492 126.639 18.7064 127.067 18.7064C127.511 18.7064 127.864 18.5492 128.127 18.235C128.39 17.9033 128.522 17.4756 128.522 16.9518V14.8568C128.522 14.7696 128.481 14.7259 128.399 14.7259H127.313C127.231 14.7259 127.157 14.6997 127.091 14.6473C127.042 14.5775 127.017 14.499 127.017 14.4117V12.081C127.017 11.9937 127.042 11.9239 127.091 11.8715C127.157 11.8017 127.231 11.7668 127.313 11.7668H131.704C131.786 11.7668 131.852 11.8017 131.901 11.8715C131.967 11.9239 132 11.9937 132 12.081V16.9256C132 18.427 131.548 19.6316 130.643 20.5395C129.739 21.4298 128.547 21.875 127.067 21.875Z" fill="#F9FAFB"/>
</svg>
